<?xml version="1.0" standalone="no"?><!DOCTYPE svg PUBLIC "-//W3C//DTD SVG 1.1//EN" "http://www.w3.org/Graphics/SVG/1.1/DTD/svg11.dtd"><svg t="1776673849019" class="icon" viewBox="0 0 1127 1024" version="1.1" xmlns="http://www.w3.org/2000/svg" p-id="1760" xmlns:xlink="http://www.w3.org/1999/xlink" width="220.1171875" height="200"><path d="M352.936376 2.803973a134.927463 134.927463 0 0 1 97.101315 41.234899 135.800268 135.800268 0 0 1 38.348457 98.640752A288.135732 288.135732 0 0 0 567.735839 339.844295l27.613638 27.091329a394.15753 394.15753 0 0 0 34.637315 26.960752 130.371007 130.371007 0 0 1 50.849503 48.396027 131.951678 131.951678 0 0 1-50.856376 184.024483 303.262067 303.262067 0 0 0-102.221315 107.664322 305.055785 305.055785 0 0 0-39.193772 143.518067 136.728054 136.728054 0 0 1-38.314094 98.633879 135.016805 135.016805 0 0 1-194.236993 0 136.198872 136.198872 0 0 1-38.314094-98.633879 134.22647 134.22647 0 0 1 68.559893-115.46459l62.910711-55.893906A287.262926 287.262926 0 0 0 427.056107 510.288752c0-98.984376-57.866309-199.583785-141.023355-252.192645a134.405154 134.405154 0 0 1-68.518658-115.416483 136.679946 136.679946 0 0 1 38.320966-98.633879c25.428188-26.355973 60.477852-41.234899 97.094443-41.234899z m422.760805 738.503302a135.27796 135.27796 0 0 1 95.781799 39.929128 136.597477 136.597477 0 0 1 16.878819 171.846443 134.927463 134.927463 0 0 1-208.490524 20.644939 136.679946 136.679946 0 0 1-29.366121-148.34255 135.978953 135.978953 0 0 1 49.928591-61.062014 135.044295 135.044295 0 0 1 75.219329-22.926604h0.048107z m115.375249-327.68a134.927463 134.927463 0 0 1 147.689664-29.544805 135.628456 135.628456 0 0 1 60.793987 50.14851 136.831141 136.831141 0 0 1 22.844134 75.617933 136.734926 136.734926 0 0 1-39.764188 96.221637 135.016805 135.016805 0 0 1-171.049235 16.968161 135.745289 135.745289 0 0 1-49.887356-61.068885 136.679946 136.679946 0 0 1 29.372994-148.342551zM141.951141 373.739383a135.635329 135.635329 0 0 1 95.699329 39.929127 136.556242 136.556242 0 0 1 16.920053 171.846443 135.27796 135.27796 0 0 1-208.442416 20.603705A136.679946 136.679946 0 0 1 16.755114 457.776107a135.978953 135.978953 0 0 1 49.887356-61.11012 135.11302 135.11302 0 0 1 75.308671-22.926604zM679.915383 46.018148a135.05804 135.05804 0 0 1 171.049234-16.920054 135.889611 135.889611 0 0 1 49.887356 61.062013 136.679946 136.679946 0 0 1-29.372993 148.342551 134.927463 134.927463 0 0 1-147.641557 29.551678 136.460027 136.460027 0 0 1-83.638121-125.814551 136.556242 136.556242 0 0 1 39.716081-96.221637z" fill="#000000" p-id="1761"></path></svg>